<svg version="1.1" xmlns="http://www.w3.org/2000/svg" viewBox="0 0 1310.0773052269137 532.5950851501193" width="1310.0773052269137" height="532.5950851501193" filter="invert(93%) hue-rotate(180deg)">
  <!-- svg-source:excalidraw -->
  
  <defs>
    <style class="style-fonts">
      @font-face {
        font-family: "Virgil";
        src: url("https://excalidraw.com/Virgil.woff2");
      }
      @font-face {
        font-family: "Cascadia";
        src: url("https://excalidraw.com/Cascadia.woff2");
      }
      @font-face {
        font-family: "Assistant";
        src: url("https://excalidraw.com/Assistant-Regular.woff2");
      }
    </style>
    
  </defs>
  <rect x="0" y="0" width="1310.0773052269137" height="532.5950851501193" fill="#ffffff"></rect><g stroke-linecap="round" transform="translate(162.80003356933594 93.60002136230469) rotate(0 89.19999694824219 58.79999542236328)"><path d="M29.4 0 C63.04 0, 96.68 0, 149 0 M29.4 0 C77.11 0, 124.82 0, 149 0 M149 0 C168.6 0, 178.4 9.8, 178.4 29.4 M149 0 C168.6 0, 178.4 9.8, 178.4 29.4 M178.4 29.4 C178.4 41.55, 178.4 53.7, 178.4 88.2 M178.4 29.4 C178.4 50.56, 178.4 71.72, 178.4 88.2 M178.4 88.2 C178.4 107.8, 168.6 117.6, 149 117.6 M178.4 88.2 C178.4 107.8, 168.6 117.6, 149 117.6 M149 117.6 C118.54 117.6, 88.09 117.6, 29.4 117.6 M149 117.6 C121.54 117.6, 94.07 117.6, 29.4 117.6 M29.4 117.6 C9.8 117.6, 0 107.8, 0 88.2 M29.4 117.6 C9.8 117.6, 0 107.8, 0 88.2 M0 88.2 C0 72.7, 0 57.19, 0 29.4 M0 88.2 C0 71.74, 0 55.29, 0 29.4 M0 29.4 C0 9.8, 9.8 0, 29.4 0 M0 29.4 C0 9.8, 9.8 0, 29.4 0" stroke="#1e1e1e" stroke-width="2" fill="none"></path></g><g stroke-linecap="round"><g transform="translate(341.99998474121094 144.80001831054688) rotate(0 93.60003662109375 -0.8000030517578125)"><path d="M0 0 C31.2 -0.27, 156 -1.33, 187.2 -1.6 M0 0 C31.2 -0.27, 156 -1.33, 187.2 -1.6" stroke="#1e1e1e" stroke-width="2" fill="none"></path></g><g transform="translate(341.99998474121094 144.80001831054688) rotate(0 93.60003662109375 -0.8000030517578125)"><path d="M163.78 7.15 C171.59 4.24, 179.39 1.32, 187.2 -1.6 M163.78 7.15 C169.27 5.1, 174.77 3.05, 187.2 -1.6" stroke="#1e1e1e" stroke-width="2" fill="none"></path></g><g transform="translate(341.99998474121094 144.80001831054688) rotate(0 93.60003662109375 -0.8000030517578125)"><path d="M163.64 -9.95 C171.49 -7.17, 179.34 -4.39, 187.2 -1.6 M163.64 -9.95 C169.16 -7.99, 174.69 -6.03, 187.2 -1.6" stroke="#1e1e1e" stroke-width="2" fill="none"></path></g></g><mask></mask><g transform="translate(212.59999084472656 139.79998779296875) rotate(0 42.999969482421875 12.5)"><text x="0" y="0" font-family="Virgil, Segoe UI Emoji" font-size="20px" fill="#1e1e1e" text-anchor="start" style="white-space: pre;" direction="ltr" dominant-baseline="text-before-edge">FrontEnd</text></g><g transform="translate(383.0000457763672 116) rotate(0 39.939964294433594 12.5)"><text x="0" y="0" font-family="Virgil, Segoe UI Emoji" font-size="20px" fill="#1e1e1e" text-anchor="start" style="white-space: pre;" direction="ltr" dominant-baseline="text-before-edge">Request</text></g><g stroke-linecap="round" transform="translate(530.0000457763672 40.80000305175781) rotate(0 126.39999389648438 136.40000915527344)"><path d="M32 0 C101.72 0, 171.43 0, 220.8 0 M32 0 C80.02 0, 128.03 0, 220.8 0 M220.8 0 C242.13 0, 252.8 10.67, 252.8 32 M220.8 0 C242.13 0, 252.8 10.67, 252.8 32 M252.8 32 C252.8 74.3, 252.8 116.6, 252.8 240.8 M252.8 32 C252.8 103.18, 252.8 174.36, 252.8 240.8 M252.8 240.8 C252.8 262.13, 242.13 272.8, 220.8 272.8 M252.8 240.8 C252.8 262.13, 242.13 272.8, 220.8 272.8 M220.8 272.8 C162.29 272.8, 103.77 272.8, 32 272.8 M220.8 272.8 C149.74 272.8, 78.68 272.8, 32 272.8 M32 272.8 C10.67 272.8, 0 262.13, 0 240.8 M32 272.8 C10.67 272.8, 0 262.13, 0 240.8 M0 240.8 C0 195.81, 0 150.81, 0 32 M0 240.8 C0 163.24, 0 85.67, 0 32 M0 32 C0 10.67, 10.67 0, 32 0 M0 32 C0 10.67, 10.67 0, 32 0" stroke="#2f9e44" stroke-width="2" fill="none"></path></g><g transform="translate(508.99998474121094 10) rotate(0 155.92987060546875 12.5)"><text x="0" y="0" font-family="Virgil, Segoe UI Emoji" font-size="20px" fill="#1e1e1e" text-anchor="start" style="white-space: pre;" direction="ltr" dominant-baseline="text-before-edge">Backend Spring-Boot Application</text></g><g transform="translate(632.4000091552734 189.80001831054688) rotate(0 24.10997772216797 12.5)"><text x="0" y="0" font-family="Virgil, Segoe UI Emoji" font-size="20px" fill="#2f9e44" text-anchor="start" style="white-space: pre;" direction="ltr" dominant-baseline="text-before-edge">/Apis</text></g><g stroke-linecap="round"><g transform="translate(533.1999969482422 144) rotate(0 49.100006103515625 24.49779181848868)"><path d="M0 0 C16.37 8.17, 81.83 40.83, 98.2 49 M0 0 C16.37 8.17, 81.83 40.83, 98.2 49" stroke="#2f9e44" stroke-width="2" fill="none"></path></g><g transform="translate(533.1999969482422 144) rotate(0 49.100006103515625 24.49779181848868)"><path d="M73.36 46.16 C80.8 47.01, 88.25 47.86, 98.2 49 M73.36 46.16 C78.7 46.77, 84.04 47.38, 98.2 49" stroke="#2f9e44" stroke-width="2" fill="none"></path></g><g transform="translate(533.1999969482422 144) rotate(0 49.100006103515625 24.49779181848868)"><path d="M81 30.86 C86.15 36.29, 91.31 41.73, 98.2 49 M81 30.86 C84.69 34.75, 88.39 38.65, 98.2 49" stroke="#2f9e44" stroke-width="2" fill="none"></path></g></g><mask></mask><g stroke-linecap="round" transform="translate(971.6000213623047 100) rotate(0 90.79998779296875 77.60003662109375)"><path d="M181.6 77.6 C181.6 80.3, 181.43 83.02, 181.1 85.71 C180.77 88.4, 180.27 91.09, 179.62 93.73 C178.96 96.38, 178.13 99.01, 177.16 101.58 C176.18 104.15, 175.04 106.69, 173.75 109.16 C172.46 111.63, 171.02 114.06, 169.44 116.4 C167.85 118.74, 166.12 121.02, 164.26 123.21 C162.4 125.4, 160.39 127.52, 158.28 129.52 C156.16 131.53, 153.91 133.46, 151.56 135.27 C149.21 137.08, 146.73 138.79, 144.17 140.38 C141.61 141.97, 138.94 143.45, 136.2 144.8 C133.46 146.16, 130.62 147.39, 127.73 148.49 C124.84 149.59, 121.87 150.57, 118.86 151.4 C115.85 152.24, 112.77 152.94, 109.68 153.5 C106.58 154.07, 103.44 154.49, 100.29 154.77 C97.14 155.06, 93.96 155.2, 90.8 155.2 C87.64 155.2, 84.46 155.06, 81.31 154.77 C78.16 154.49, 75.02 154.07, 71.92 153.5 C68.83 152.94, 65.75 152.24, 62.74 151.4 C59.73 150.57, 56.76 149.59, 53.87 148.49 C50.98 147.39, 48.14 146.16, 45.4 144.8 C42.66 143.45, 39.99 141.97, 37.43 140.38 C34.87 138.79, 32.39 137.08, 30.04 135.27 C27.69 133.46, 25.44 131.53, 23.32 129.52 C21.21 127.52, 19.2 125.4, 17.34 123.21 C15.48 121.02, 13.75 118.74, 12.16 116.4 C10.58 114.06, 9.14 111.63, 7.85 109.16 C6.56 106.69, 5.42 104.15, 4.44 101.58 C3.47 99.01, 2.64 96.38, 1.98 93.73 C1.33 91.09, 0.83 88.4, 0.5 85.71 C0.17 83.02, 0 80.3, 0 77.6 C0 74.9, 0.17 72.18, 0.5 69.49 C0.83 66.8, 1.33 64.11, 1.98 61.47 C2.64 58.82, 3.47 56.19, 4.44 53.62 C5.42 51.05, 6.56 48.51, 7.85 46.04 C9.14 43.57, 10.58 41.14, 12.16 38.8 C13.75 36.46, 15.48 34.18, 17.34 31.99 C19.2 29.8, 21.21 27.68, 23.32 25.68 C25.44 23.67, 27.69 21.74, 30.04 19.93 C32.39 18.12, 34.87 16.41, 37.43 14.82 C39.99 13.23, 42.66 11.75, 45.4 10.4 C48.14 9.04, 50.98 7.81, 53.87 6.71 C56.76 5.61, 59.73 4.63, 62.74 3.8 C65.75 2.96, 68.83 2.26, 71.92 1.7 C75.02 1.13, 78.16 0.71, 81.31 0.43 C84.46 0.14, 87.64 0, 90.8 0 C93.96 0, 97.14 0.14, 100.29 0.43 C103.44 0.71, 106.58 1.13, 109.68 1.7 C112.77 2.26, 115.85 2.96, 118.86 3.8 C121.87 4.63, 124.84 5.61, 127.73 6.71 C130.62 7.81, 133.46 9.04, 136.2 10.4 C138.94 11.75, 141.61 13.23, 144.17 14.82 C146.73 16.41, 149.21 18.12, 151.56 19.93 C153.91 21.74, 156.16 23.67, 158.28 25.68 C160.39 27.68, 162.4 29.8, 164.26 31.99 C166.12 34.18, 167.85 36.46, 169.44 38.8 C171.02 41.14, 172.46 43.57, 173.75 46.04 C175.04 48.51, 176.18 51.05, 177.16 53.62 C178.13 56.19, 178.96 58.82, 179.62 61.47 C180.27 64.11, 180.77 66.8, 181.1 69.49 C181.43 72.18, 181.52 76.25, 181.6 77.6 C181.68 78.95, 181.68 76.25, 181.6 77.6" stroke="#1e1e1e" stroke-width="2" fill="none"></path></g><g transform="translate(1010.5647553193696 165.22852450599396) rotate(0 51.629966735839844 12.5)"><text x="51.629966735839844" y="0" font-family="Virgil, Segoe UI Emoji" font-size="20px" fill="#1e1e1e" text-anchor="middle" style="white-space: pre;" direction="ltr" dominant-baseline="text-before-edge">DataBase</text></g><g stroke-linecap="round"><g transform="translate(787.6000213623047 103.20001220703125) rotate(0 94 40.399993896484375)"><path d="M0 0 C31.33 8.4, 187.6 36.93, 188 50.4 C188.4 63.87, 33.33 75.73, 2.4 80.8 M0 0 C31.33 8.4, 187.6 36.93, 188 50.4 C188.4 63.87, 33.33 75.73, 2.4 80.8" stroke="#1e1e1e" stroke-width="2" fill="none"></path></g><g transform="translate(787.6000213623047 103.20001220703125) rotate(0 94 40.399993896484375)"><path d="M24.75 69.59 C20 71.98, 15.24 74.36, 2.4 80.8 M24.75 69.59 C15.82 74.07, 6.9 78.55, 2.4 80.8" stroke="#1e1e1e" stroke-width="2" fill="none"></path></g><g transform="translate(787.6000213623047 103.20001220703125) rotate(0 94 40.399993896484375)"><path d="M26.72 86.58 C21.55 85.35, 16.38 84.12, 2.4 80.8 M26.72 86.58 C17.01 84.27, 7.29 81.96, 2.4 80.8" stroke="#1e1e1e" stroke-width="2" fill="none"></path></g></g><mask></mask><g transform="translate(841.3999481201172 94.4000244140625) rotate(14.045717107537584 32.929969787597656 12.5)"><text x="0" y="0" font-family="Virgil, Segoe UI Emoji" font-size="20px" fill="#1e1e1e" text-anchor="start" style="white-space: pre;" direction="ltr" dominant-baseline="text-before-edge">Access</text></g><g transform="translate(871.9922141273121 174.15058497914117) rotate(352.3763966796574 43.71995544433594 25)"><text x="0" y="0" font-family="Virgil, Segoe UI Emoji" font-size="20px" fill="#1e1e1e" text-anchor="start" style="white-space: pre;" direction="ltr" dominant-baseline="text-before-edge">Response</text><text x="0" y="25" font-family="Virgil, Segoe UI Emoji" font-size="20px" fill="#1e1e1e" text-anchor="start" style="white-space: pre;" direction="ltr" dominant-baseline="text-before-edge">in Json</text></g><g transform="translate(600.0000457763672 144.79998779296875) rotate(0 59.57273864746094 9.003633759957609)"><text x="0" y="0" font-family="Virgil, Segoe UI Emoji" font-size="14.405814015932176px" fill="#1e1e1e" text-anchor="start" style="white-space: pre;" direction="ltr" dominant-baseline="text-before-edge">Request Process</text></g><g stroke-linecap="round"><g transform="translate(515.5948104708585 172.909074889188) rotate(0 -86.88052476315283 -0.45193199887086166)"><path d="M0 0 C-28.96 -0.15, -144.8 -0.75, -173.76 -0.9 M0 0 C-28.96 -0.15, -144.8 -0.75, -173.76 -0.9" stroke="#1e1e1e" stroke-width="2" fill="none"></path></g><g transform="translate(515.5948104708585 172.909074889188) rotate(0 -86.88052476315283 -0.45193199887086166)"><path d="M-150.22 -9.33 C-155.15 -7.57, -160.07 -5.81, -173.76 -0.9 M-150.22 -9.33 C-159.09 -6.16, -167.95 -2.99, -173.76 -0.9" stroke="#1e1e1e" stroke-width="2" fill="none"></path></g><g transform="translate(515.5948104708585 172.909074889188) rotate(0 -86.88052476315283 -0.45193199887086166)"><path d="M-150.31 7.77 C-155.22 5.95, -160.12 4.14, -173.76 -0.9 M-150.31 7.77 C-159.14 4.5, -167.97 1.24, -173.76 -0.9" stroke="#1e1e1e" stroke-width="2" fill="none"></path></g></g><mask></mask><g transform="translate(382.13510192026115 175.7688139970263) rotate(0 43.71995544433594 12.5)"><text x="0" y="0" font-family="Virgil, Segoe UI Emoji" font-size="20px" fill="#1e1e1e" text-anchor="start" style="white-space: pre;" direction="ltr" dominant-baseline="text-before-edge">Response</text></g><g stroke-linecap="round" transform="translate(10 116) rotate(0 40.00000762939453 24.800003051757812)"><path d="M12.4 0 C24.72 0, 37.04 0, 67.6 0 M12.4 0 C28.66 0, 44.93 0, 67.6 0 M67.6 0 C75.87 0, 80 4.13, 80 12.4 M67.6 0 C75.87 0, 80 4.13, 80 12.4 M80 12.4 C80 21.81, 80 31.22, 80 37.2 M80 12.4 C80 19.67, 80 26.95, 80 37.2 M80 37.2 C80 45.47, 75.87 49.6, 67.6 49.6 M80 37.2 C80 45.47, 75.87 49.6, 67.6 49.6 M67.6 49.6 C51.14 49.6, 34.68 49.6, 12.4 49.6 M67.6 49.6 C45.7 49.6, 23.81 49.6, 12.4 49.6 M12.4 49.6 C4.13 49.6, 0 45.47, 0 37.2 M12.4 49.6 C4.13 49.6, 0 45.47, 0 37.2 M0 37.2 C0 30.79, 0 24.38, 0 12.4 M0 37.2 C0 27.63, 0 18.06, 0 12.4 M0 12.4 C0 4.13, 4.13 0, 12.4 0 M0 12.4 C0 4.13, 4.13 0, 12.4 0" stroke="#1e1e1e" stroke-width="2" fill="none"></path></g><g transform="translate(27.66002655029297 128.3000030517578) rotate(0 22.339981079101562 12.5)"><text x="22.339981079101562" y="0" font-family="Virgil, Segoe UI Emoji" font-size="20px" fill="#1e1e1e" text-anchor="middle" style="white-space: pre;" direction="ltr" dominant-baseline="text-before-edge">User</text></g><g stroke-linecap="round"><g transform="translate(91.59999084472656 124.80001831054688) rotate(0 32.40000915527344 0)"><path d="M0 0 C10.8 0, 54 0, 64.8 0 M0 0 C10.8 0, 54 0, 64.8 0" stroke="#1e1e1e" stroke-width="2" fill="none"></path></g><g transform="translate(91.59999084472656 124.80001831054688) rotate(0 32.40000915527344 0)"><path d="M41.31 8.55 C48.81 5.82, 56.32 3.09, 64.8 0 M41.31 8.55 C46.58 6.63, 51.85 4.71, 64.8 0" stroke="#1e1e1e" stroke-width="2" fill="none"></path></g><g transform="translate(91.59999084472656 124.80001831054688) rotate(0 32.40000915527344 0)"><path d="M41.31 -8.55 C48.81 -5.82, 56.32 -3.09, 64.8 0 M41.31 -8.55 C46.58 -6.63, 51.85 -4.71, 64.8 0" stroke="#1e1e1e" stroke-width="2" fill="none"></path></g></g><mask></mask><g stroke-linecap="round"><g transform="translate(154.00001525878906 151.20001220703125) rotate(0 -29.20001220703125 0.8000030517578125)"><path d="M0 0 C-9.73 0.27, -48.67 1.33, -58.4 1.6 M0 0 C-9.73 0.27, -48.67 1.33, -58.4 1.6" stroke="#1e1e1e" stroke-width="2" fill="none"></path></g><g transform="translate(154.00001525878906 151.20001220703125) rotate(0 -29.20001220703125 0.8000030517578125)"><path d="M-35.15 -7.59 C-42.28 -4.77, -49.4 -1.96, -58.4 1.6 M-35.15 -7.59 C-42.74 -4.59, -50.34 -1.59, -58.4 1.6" stroke="#1e1e1e" stroke-width="2" fill="none"></path></g><g transform="translate(154.00001525878906 151.20001220703125) rotate(0 -29.20001220703125 0.8000030517578125)"><path d="M-34.68 9.5 C-41.95 7.08, -49.22 4.66, -58.4 1.6 M-34.68 9.5 C-42.43 6.92, -50.17 4.34, -58.4 1.6" stroke="#1e1e1e" stroke-width="2" fill="none"></path></g></g><mask></mask><g stroke-linecap="round" transform="translate(579.6000213623047 103.20001220703125) rotate(0 80 73.60000610351562)"><path d="M160 73.6 C160 76.35, 159.83 79.11, 159.5 81.84 C159.16 84.57, 158.66 87.3, 157.99 89.98 C157.33 92.66, 156.5 95.32, 155.51 97.91 C154.52 100.5, 153.37 103.06, 152.08 105.53 C150.78 108.01, 149.33 110.43, 147.74 112.76 C146.15 115.08, 144.41 117.34, 142.55 119.49 C140.68 121.64, 138.68 123.7, 136.57 125.64 C134.46 127.59, 132.21 129.43, 129.88 131.14 C127.54 132.86, 125.09 134.46, 122.56 135.92 C120.03 137.38, 117.4 138.72, 114.71 139.91 C112.02 141.1, 109.24 142.16, 106.42 143.07 C103.6 143.98, 100.71 144.74, 97.8 145.35 C94.89 145.97, 91.92 146.43, 88.96 146.74 C85.99 147.04, 82.99 147.2, 80 147.2 C77.01 147.2, 74.01 147.04, 71.04 146.74 C68.08 146.43, 65.11 145.97, 62.2 145.35 C59.29 144.74, 56.4 143.98, 53.58 143.07 C50.76 142.16, 47.98 141.1, 45.29 139.91 C42.6 138.72, 39.97 137.38, 37.44 135.92 C34.91 134.46, 32.46 132.86, 30.12 131.14 C27.79 129.43, 25.54 127.59, 23.43 125.64 C21.32 123.7, 19.32 121.64, 17.45 119.49 C15.59 117.34, 13.85 115.08, 12.26 112.76 C10.67 110.43, 9.22 108.01, 7.92 105.53 C6.63 103.06, 5.48 100.5, 4.49 97.91 C3.5 95.32, 2.67 92.66, 2.01 89.98 C1.34 87.3, 0.84 84.57, 0.5 81.84 C0.17 79.11, 0 76.35, 0 73.6 C0 70.85, 0.17 68.09, 0.5 65.36 C0.84 62.63, 1.34 59.9, 2.01 57.22 C2.67 54.54, 3.5 51.88, 4.49 49.29 C5.48 46.7, 6.63 44.14, 7.92 41.67 C9.22 39.19, 10.67 36.77, 12.26 34.44 C13.85 32.12, 15.59 29.86, 17.45 27.71 C19.32 25.56, 21.32 23.5, 23.43 21.56 C25.54 19.61, 27.79 17.77, 30.12 16.06 C32.46 14.34, 34.91 12.74, 37.44 11.28 C39.97 9.82, 42.6 8.48, 45.29 7.29 C47.98 6.1, 50.76 5.04, 53.58 4.13 C56.4 3.22, 59.29 2.46, 62.2 1.85 C65.11 1.23, 68.08 0.77, 71.04 0.46 C74.01 0.16, 77.01 0, 80 0 C82.99 0, 85.99 0.16, 88.96 0.46 C91.92 0.77, 94.89 1.23, 97.8 1.85 C100.71 2.46, 103.6 3.22, 106.42 4.13 C109.24 5.04, 112.02 6.1, 114.71 7.29 C117.4 8.48, 120.03 9.82, 122.56 11.28 C125.09 12.74, 127.54 14.34, 129.88 16.06 C132.21 17.77, 134.46 19.61, 136.57 21.56 C138.68 23.5, 140.68 25.56, 142.55 27.71 C144.41 29.86, 146.15 32.12, 147.74 34.44 C149.33 36.77, 150.78 39.19, 152.08 41.67 C153.37 44.14, 154.52 46.7, 155.51 49.29 C156.5 51.88, 157.33 54.54, 157.99 57.22 C158.66 59.9, 159.16 62.63, 159.5 65.36 C159.83 68.09, 159.92 72.23, 160 73.6 C160.08 74.97, 160.08 72.23, 160 73.6" stroke="#2f9e44" stroke-width="1" fill="none"></path></g><g stroke-linecap="round"><g transform="translate(725.340798585828 237.38723420163126) rotate(0 112.04099011403332 73.00492803589594)"><path d="M0 0 C37.35 24.33, 186.73 121.67, 224.08 146.01 M0 0 C37.35 24.33, 186.73 121.67, 224.08 146.01" stroke="#e03131" stroke-width="2" fill="none"></path></g><g transform="translate(725.340798585828 237.38723420163126) rotate(0 112.04099011403332 73.00492803589594)"><path d="M199.73 140.35 C205.31 141.65, 210.9 142.94, 224.08 146.01 M199.73 140.35 C207.14 142.07, 214.54 143.79, 224.08 146.01" stroke="#e03131" stroke-width="2" fill="none"></path></g><g transform="translate(725.340798585828 237.38723420163126) rotate(0 112.04099011403332 73.00492803589594)"><path d="M209.07 126.02 C212.51 130.6, 215.95 135.19, 224.08 146.01 M209.07 126.02 C213.63 132.1, 218.2 138.18, 224.08 146.01" stroke="#e03131" stroke-width="2" fill="none"></path></g></g><mask></mask><g stroke-linecap="round" transform="translate(953.4226567435821 338.5950851501193) rotate(0 103.20001220703125 92)"><path d="M32 0 C76.75 0, 121.5 0, 174.4 0 M32 0 C81.44 0, 130.87 0, 174.4 0 M174.4 0 C195.73 0, 206.4 10.67, 206.4 32 M174.4 0 C195.73 0, 206.4 10.67, 206.4 32 M206.4 32 C206.4 68.04, 206.4 104.09, 206.4 152 M206.4 32 C206.4 65.93, 206.4 99.87, 206.4 152 M206.4 152 C206.4 173.33, 195.73 184, 174.4 184 M206.4 152 C206.4 173.33, 195.73 184, 174.4 184 M174.4 184 C144.73 184, 115.07 184, 32 184 M174.4 184 C136.96 184, 99.52 184, 32 184 M32 184 C10.67 184, 0 173.33, 0 152 M32 184 C10.67 184, 0 173.33, 0 152 M0 152 C0 124.78, 0 97.56, 0 32 M0 152 C0 115.67, 0 79.34, 0 32 M0 32 C0 10.67, 10.67 0, 32 0 M0 32 C0 10.67, 10.67 0, 32 0" stroke="#e03131" stroke-width="2" fill="none"></path></g><g transform="translate(981.8923566568587 386.8746768236499) rotate(0 76.0699462890625 50)"><text x="76.0699462890625" y="0" font-family="Virgil, Segoe UI Emoji" font-size="20px" fill="#e03131" text-anchor="middle" style="white-space: pre;" direction="ltr" dominant-baseline="text-before-edge">Random Famous</text><text x="76.0699462890625" y="25" font-family="Virgil, Segoe UI Emoji" font-size="20px" fill="#e03131" text-anchor="middle" style="white-space: pre;" direction="ltr" dominant-baseline="text-before-edge"> Website</text><text x="76.0699462890625" y="50" font-family="Virgil, Segoe UI Emoji" font-size="20px" fill="#e03131" text-anchor="middle" style="white-space: pre;" direction="ltr" dominant-baseline="text-before-edge">Having Cricket </text><text x="76.0699462890625" y="75" font-family="Virgil, Segoe UI Emoji" font-size="20px" fill="#e03131" text-anchor="middle" style="white-space: pre;" direction="ltr" dominant-baseline="text-before-edge">Score </text></g><g stroke-linecap="round"><g transform="translate(941.8835031263093 419.65172593580087) rotate(0 -118.7114472284448 -79.18206309928286)"><path d="M0 0 C-39.57 -26.39, -197.85 -131.97, -237.42 -158.36 M0 0 C-39.57 -26.39, -197.85 -131.97, -237.42 -158.36" stroke="#e03131" stroke-width="2" fill="none"></path></g><g transform="translate(941.8835031263093 419.65172593580087) rotate(0 -118.7114472284448 -79.18206309928286)"><path d="M-213.13 -152.44 C-222.68 -154.77, -232.22 -157.09, -237.42 -158.36 M-213.13 -152.44 C-219.63 -154.03, -226.12 -155.61, -237.42 -158.36" stroke="#e03131" stroke-width="2" fill="none"></path></g><g transform="translate(941.8835031263093 419.65172593580087) rotate(0 -118.7114472284448 -79.18206309928286)"><path d="M-222.62 -138.21 C-228.44 -146.13, -234.25 -154.05, -237.42 -158.36 M-222.62 -138.21 C-226.58 -143.6, -230.54 -148.99, -237.42 -158.36" stroke="#e03131" stroke-width="2" fill="none"></path></g></g><mask></mask><g transform="translate(816.5265109662273 298.7227401974957) rotate(34.34915142477476 61.229949951171875 12.5)"><text x="61.229949951171875" y="0" font-family="Virgil, Segoe UI Emoji" font-size="20px" fill="#e03131" text-anchor="middle" style="white-space: pre;" direction="ltr" dominant-baseline="text-before-edge">Web scraping</text></g><g transform="translate(945.517551808945 41.66996985811252) rotate(0 177.27987670898438 24.999999999999986)"><text x="177.27987670898438" y="0" font-family="Virgil, Segoe UI Emoji" font-size="20px" fill="#e03131" text-anchor="middle" style="white-space: pre;" direction="ltr" dominant-baseline="text-before-edge">Also storing Matches in DataBase </text><text x="177.27987670898438" y="25" font-family="Virgil, Segoe UI Emoji" font-size="20px" fill="#e03131" text-anchor="middle" style="white-space: pre;" direction="ltr" dominant-baseline="text-before-edge">Which are already ended</text></g><g transform="translate(416.43682438614314 92.06844558846359) rotate(0 2.7099990844726562 12.5)"><text x="2.7099990844726562" y="0" font-family="Virgil, Segoe UI Emoji" font-size="20px" fill="#1971c2" text-anchor="middle" style="white-space: pre;" direction="ltr" dominant-baseline="text-before-edge">1</text></g><g transform="translate(649.8841265712092 111.28914867423168) rotate(0 7.1199951171875 12.5)"><text x="7.1199951171875" y="0" font-family="Virgil, Segoe UI Emoji" font-size="20px" fill="#1971c2" text-anchor="middle" style="white-space: pre;" direction="ltr" dominant-baseline="text-before-edge">2</text></g><g transform="translate(875.798261020293 281.1529881576603) rotate(0 6.80999755859375 12.5)"><text x="6.80999755859375" y="0" font-family="Virgil, Segoe UI Emoji" font-size="20px" fill="#1971c2" text-anchor="middle" style="white-space: pre;" direction="ltr" dominant-baseline="text-before-edge">3</text></g><g transform="translate(840.8900250233476 362.6010545334335) rotate(0 6.399993896484375 12.5)"><text x="6.399993896484375" y="0" font-family="Virgil, Segoe UI Emoji" font-size="20px" fill="#1971c2" text-anchor="middle" style="white-space: pre;" direction="ltr" dominant-baseline="text-before-edge">4</text></g><g transform="translate(656.1098768940772 222.7698534706244) rotate(0 6.17999267578125 12.5)"><text x="6.17999267578125" y="0" font-family="Virgil, Segoe UI Emoji" font-size="20px" fill="#1971c2" text-anchor="middle" style="white-space: pre;" direction="ltr" dominant-baseline="text-before-edge">5</text></g><g transform="translate(825.7536051745326 85.58139803589825) rotate(0 6.399993896484375 12.5)"><text x="6.399993896484375" y="0" font-family="Virgil, Segoe UI Emoji" font-size="20px" fill="#1971c2" text-anchor="middle" style="white-space: pre;" direction="ltr" dominant-baseline="text-before-edge">6</text></g><g transform="translate(847.1956229048494 189.13349934047676) rotate(0 5.379997253417969 12.5)"><text x="5.379997253417969" y="0" font-family="Virgil, Segoe UI Emoji" font-size="20px" fill="#1971c2" text-anchor="middle" style="white-space: pre;" direction="ltr" dominant-baseline="text-before-edge">7</text></g><g transform="translate(417.2630166703701 204.51008380554515) rotate(0 7.649993896484375 12.5)"><text x="7.649993896484375" y="0" font-family="Virgil, Segoe UI Emoji" font-size="20px" fill="#1971c2" text-anchor="middle" style="white-space: pre;" direction="ltr" dominant-baseline="text-before-edge">8</text></g></svg>